HIERARCHY
ROOT Hips
{
	OFFSET 0.000000 0.000000 0.000000
	CHANNELS 6 Xposition Yposition Zposition Zrotation Yrotation Xrotation 
	JOINT LowerBack
	{
		OFFSET 0.000000 0.000000 0.000000
		CHANNELS 3 Zrotation Yrotation Xrotation
		JOINT Spine
		{
			OFFSET 0.028270 2.035590 -0.193380
			CHANNELS 3 Zrotation Yrotation Xrotation
			JOINT Spine1
			{
				OFFSET 0.056720 2.048850 -0.042750
				CHANNELS 3 Zrotation Yrotation Xrotation
				JOINT Neck
				{
					OFFSET 0.000000 0.000000 0.000000
					CHANNELS 3 Zrotation Yrotation Xrotation
					JOINT Neck1
					{
						OFFSET -0.054170 1.746240 0.172020
						CHANNELS 3 Zrotation Yrotation Xrotation
						JOINT Head
						{
							OFFSET 0.104070 1.761360 -0.123970
							CHANNELS 3 Zrotation Yrotation Xrotation
							End Site
							{
								OFFSET 0.000000 0.000000 0.000000
							}
						}
					}
				}
				JOINT LeftShoulder
				{
					OFFSET 0.000000 0.000000 0.000000
					CHANNELS 3 Zrotation Yrotation Xrotation
					JOINT LeftArm
					{
						OFFSET 3.362410 1.200890 -0.311210
						CHANNELS 3 Zrotation Yrotation Xrotation
						JOINT LeftForeArm
						{
							OFFSET 4.983000 -0.000000 -0.000000
							CHANNELS 3 Zrotation Yrotation Xrotation
							JOINT LeftHand
							{
								OFFSET 3.483560 -0.000000 -0.000000
								CHANNELS 3 Zrotation Yrotation Xrotation
								JOINT LeftFingerBase
								{
									OFFSET 0.000000 0.000000 0.000000
									CHANNELS 3 Zrotation Yrotation Xrotation
									JOINT LeftHandIndex1
									{
										OFFSET 0.715260 -0.000000 -0.000000
										CHANNELS 3 Zrotation Yrotation Xrotation
										End Site
										{
											OFFSET 0.000000 0.000000 0.000000
										}
									}
								}
								JOINT LThumb
								{
									OFFSET 0.000000 0.000000 0.000000
									CHANNELS 3 Zrotation Yrotation Xrotation
									End Site
									{
										OFFSET 0.000000 0.000000 0.000000
									}
								}
							}
						}
					}
				}
				JOINT RightShoulder
				{
					OFFSET 0.000000 0.000000 0.000000
					CHANNELS 3 Zrotation Yrotation Xrotation
					JOINT RightArm
					{
						OFFSET -3.136600 1.374050 -0.404650
						CHANNELS 3 Zrotation Yrotation Xrotation
						JOINT RightForeArm
						{
							OFFSET -5.241900 -0.000000 -0.000000
							CHANNELS 3 Zrotation Yrotation Xrotation
							JOINT RightHand
							{
								OFFSET -3.444170 -0.000000 -0.000000
								CHANNELS 3 Zrotation Yrotation Xrotation
								JOINT RightFingerBase
								{
									OFFSET 0.000000 0.000000 0.000000
									CHANNELS 3 Zrotation Yrotation Xrotation
									JOINT RightHandIndex1
									{
										OFFSET -0.622530 -0.000000 -0.000000
										CHANNELS 3 Zrotation Yrotation Xrotation
										End Site
										{
											OFFSET 0.000000 0.000000 0.000000
										}
									}
								}
								JOINT RThumb
								{
									OFFSET 0.000000 0.000000 0.000000
									CHANNELS 3 Zrotation Yrotation Xrotation
									End Site
									{
										OFFSET 0.000000 0.000000 0.000000
									}
								}
							}
						}
					}
				}
			}
		}
	}
}
}
MOTION
Frames: 15
Frame Time: 0.008333
1.781862 17.151608 1.514168 -106.002496 -84.608040 123.083955 2.922407 0.434652 -13.213900 -0.756952 -0.573324 -5.089208 -8.973951 -0.505775 1.544316 14.103704 -10.154050 -7.930273 -3.591647 -0.291091 -0.001152 0.000000 0.000000 0.000000 2.726707 16.226040 0.825617 -60.248560 6.738703 -11.700750 -1.277645 -58.431673 0.007661 24.201000 -9.904653 -2.153958 -0.170081 0.062986 0.000000 0.000000 0.000000 0.000000 0.000000 0.000000 0.000000 15.693701 -3.787386 -3.745327 70.958797 19.570787 0.414874 -179.851808 79.774113 179.883997 -19.641081 36.910149 -6.892006 0.238906 -1.006931 -0.000000 0.000000 0.000000 0.000000 0.000000 0.000000 0.000000 
1.514998 17.142735 1.502928 -113.527229 -84.411904 130.577396 2.862811 1.061424 -13.210796 -0.833316 0.046005 -5.127935 -8.980623 0.112439 1.460125 13.773705 -9.405207 -7.800102 -3.546419 -0.288517 0.028794 0.000000 0.000000 0.000000 2.129303 17.143815 0.951550 -58.494653 6.837862 -13.941071 -1.308197 -57.330969 0.013239 24.792989 -9.674752 -2.151890 -0.163254 0.043010 0.000000 0.000000 0.000000 0.000000 0.000000 0.000000 0.000000 15.045310 -2.680429 -3.763070 71.119206 19.882246 2.225166 -179.806149 79.778370 179.887471 -19.042380 38.195209 -6.927790 0.229014 -1.036622 -0.000000 0.000000 0.000000 0.000000 0.000000 0.000000 0.000000 
1.246716 17.130569 1.495097 -119.826379 -84.135648 136.820971 2.860732 1.656465 -13.166193 -0.891094 0.630305 -5.158071 -8.974978 0.694579 1.379686 13.411222 -8.635422 -7.684462 -3.493161 -0.285073 0.055123 0.000000 0.000000 0.000000 1.482515 18.141672 1.058136 -56.726035 6.819284 -16.178082 -1.338228 -56.313943 0.018287 25.332289 -9.487762 -2.153015 -0.156553 0.025738 0.000000 0.000000 0.000000 0.000000 0.000000 0.000000 0.000000 14.331657 -1.573548 -3.795015 71.243960 20.178732 3.984736 -179.754243 79.823111 179.889976 -18.507256 39.319285 -6.943219 0.219334 -1.063268 -0.000000 0.000000 0.000000 0.000000 0.000000 0.000000 0.000000 
0.977643 17.115583 1.490148 -124.764021 -83.808028 141.657908 2.922680 2.212700 -13.057160 -0.928746 1.173481 -5.174241 -8.959152 1.235254 1.304120 13.025391 -7.879101 -7.588586 -3.432620 -0.280752 0.076356 0.000000 0.000000 0.000000 0.782887 19.192155 1.142940 -54.939938 6.716690 -18.407553 -1.364221 -55.413721 0.022703 25.803704 -9.328790 -2.153529 -0.150073 0.011058 0.000000 0.000000 0.000000 0.000000 0.000000 0.000000 0.000000 13.576069 -0.506284 -3.837872 71.347319 20.502722 5.721128 -179.698053 79.931573 179.891593 -18.066309 40.271390 -6.952693 0.210649 -1.086239 -0.000000 0.000000 0.000000 0.000000 0.000000 0.000000 0.000000 
0.708000 17.098131 1.487644 -128.516615 -83.448916 145.254288 3.046723 2.730207 -12.873699 -0.947121 1.676855 -5.174325 -8.935598 1.736061 1.232891 12.622897 -7.143232 -7.512177 -3.365021 -0.275570 0.092512 0.000000 0.000000 0.000000 0.043555 20.287466 1.205862 -53.149673 6.538962 -20.618124 -1.384506 -54.627883 0.026374 26.201880 -9.187163 -2.151235 -0.143963 -0.001060 -0.000000 0.000000 0.000000 0.000000 0.000000 0.000000 0.000000 12.787565 0.514060 -3.892045 71.446608 20.853551 7.430762 -179.638411 80.105241 179.892311 -17.733396 41.047636 -6.965219 0.203269 -1.105315 -0.000000 0.000000 0.000000 0.000000 0.000000 0.000000 0.000000 
0.437603 17.078567 1.487063 -131.371428 -83.073376 147.897463 3.219066 3.211750 -12.622648 -0.949660 2.144862 -5.158750 -8.906153 2.201521 1.168638 12.211598 -6.426923 -7.455160 -3.289960 -0.269507 0.103566 0.000000 0.000000 0.000000 -0.706920 21.440474 1.246817 -51.381761 6.261998 -22.795882 -1.399291 -53.921820 0.029171 26.529862 -9.063835 -2.147032 -0.138471 -0.010454 -0.000000 0.000000 0.000000 0.000000 0.000000 0.000000 0.000000 11.970724 1.489041 -3.960983 71.560116 21.212731 9.100249 -179.575334 80.336283 179.892079 -17.506337 41.651832 -6.984690 0.197133 -1.120501 -0.000000 0.000000 0.000000 0.000000 0.000000 0.000000 0.000000 
0.166691 17.057265 1.487925 -133.619333 -82.700690 149.861305 3.417774 3.656210 -12.293333 -0.940760 2.579990 -5.125397 -8.871007 2.634071 1.110423 11.797564 -5.744749 -7.416104 -3.208255 -0.262643 0.109819 0.000000 0.000000 0.000000 -1.454552 22.628687 1.267239 -49.653528 5.905120 -24.939181 -1.407280 -53.292597 0.031027 26.786762 -8.954925 -2.140419 -0.133683 -0.017144 -0.000000 0.000000 0.000000 0.000000 0.000000 0.000000 0.000000 11.139298 2.403001 -4.041755 71.700657 21.588654 10.733784 -179.510496 80.632674 179.891172 -17.378975 42.095379 -7.013304 0.192371 -1.131723 -0.000000 0.000000 0.000000 0.000000 0.000000 0.000000 0.000000 
-0.105243 17.034519 1.489799 -135.442588 -82.343960 151.337498 3.626302 4.064600 -11.904330 -0.923998 2.984351 -5.077471 -8.830565 3.035641 1.058809 11.386845 -5.105235 -7.392365 -3.120576 -0.255112 0.112107 0.000000 0.000000 0.000000 -2.177652 23.831574 1.269136 -47.986263 5.490732 -27.041613 -1.407697 -52.732728 0.031912 26.978011 -8.860850 -2.132196 -0.129769 -0.021137 -0.000000 0.000000 0.000000 0.000000 0.000000 0.000000 0.000000 10.302398 3.247430 -4.132619 71.880561 21.971392 12.329501 -179.445286 80.993267 179.889826 -17.331943 42.394146 -7.047760 0.188835 -1.139076 -0.000000 0.000000 0.000000 0.000000 0.000000 0.000000 0.000000 
-0.377745 17.010782 1.491931 -137.053898 -82.032658 152.519483 3.811896 4.430650 -11.442375 -0.905333 3.356219 -5.014006 -8.784245 3.404240 1.007383 10.985400 -4.521304 -7.376649 -3.029883 -0.247234 0.112320 0.000000 0.000000 0.000000 -2.863944 24.986831 1.259186 -46.391640 5.093384 -29.104484 -1.398417 -52.270243 0.031852 27.101858 -8.774331 -2.120764 -0.126682 -0.022659 -0.000000 0.000000 0.000000 0.000000 0.000000 0.000000 0.000000 9.483131 4.008378 -4.224742 72.104069 22.370939 13.893112 -179.382557 81.427411 179.888463 -17.344152 42.568181 -7.083848 0.186561 -1.142694 -0.000000 0.000000 0.000000 0.000000 0.000000 0.000000 0.000000 
-0.652026 16.986172 1.494013 -138.444128 -81.769308 153.444534 3.972963 4.759157 -10.967235 -0.886339 3.696869 -4.944213 -8.733481 3.741313 0.964534 10.602859 -3.997953 -7.370525 -2.936714 -0.239127 0.110316 0.000000 0.000000 0.000000 -3.478297 26.101724 1.238690 -44.897172 4.703179 -31.110427 -1.380861 -51.875846 0.030872 27.169442 -8.713278 -2.111524 -0.124795 -0.021596 -0.000000 0.000000 0.000000 0.000000 0.000000 0.000000 0.000000 8.691496 4.682335 -4.319096 72.378874 22.766493 15.420781 -179.322957 81.925100 179.887315 -17.382348 42.637667 -7.111661 0.185094 -1.142887 -0.000000 0.000000 0.000000 0.000000 0.000000 0.000000 0.000000 
-0.928353 16.961004 1.495279 -139.703877 -81.571921 154.214447 4.087014 5.047956 -10.497693 -0.872287 4.004980 -4.871353 -8.679819 4.045677 0.932398 10.250961 -3.546107 -7.372308 -2.844136 -0.231070 0.106527 0.000000 0.000000 0.000000 -3.996588 27.149460 1.212511 -43.516530 4.349475 -33.050958 -1.355231 -51.552476 0.029042 27.183534 -8.687782 -2.107374 -0.124244 -0.018026 -0.000000 0.000000 0.000000 0.000000 0.000000 0.000000 0.000000 7.956330 5.258994 -4.409179 72.703528 23.163403 16.918412 -179.268244 82.487823 179.886763 -17.419484 42.625099 -7.123896 0.184323 -1.140006 -0.000000 0.000000 0.000000 0.000000 0.000000 0.000000 0.000000 
-1.207441 16.935539 1.495153 -140.841398 -81.444533 154.866998 4.149900 5.299318 -10.071221 -0.865528 4.280255 -4.803410 -8.626318 4.316783 0.908767 9.939898 -3.170864 -7.376735 -2.755945 -0.223485 0.102629 0.000000 0.000000 0.000000 -4.403322 28.082933 1.186442 -42.250489 4.111608 -34.907159 -1.320432 -51.331966 0.026514 27.152829 -8.690671 -2.107113 -0.125143 -0.012278 -0.000000 0.000000 0.000000 0.000000 0.000000 0.000000 0.000000 7.303546 5.738540 -4.486972 73.075545 23.553981 18.389796 -179.219641 83.112745 179.887157 -17.427932 42.553059 -7.113237 0.184105 -1.134516 -0.000000 0.000000 0.000000 0.000000 0.000000 0.000000 0.000000 
-1.489760 16.910068 1.493074 -141.885793 -81.389188 155.451106 4.154071 5.514978 -9.713946 -0.869281 4.522915 -4.744876 -8.576658 4.555016 0.897159 9.682316 -2.877764 -7.384301 -2.675503 -0.216645 0.098493 0.000000 0.000000 0.000000 -4.680650 28.892323 1.163805 -41.102742 4.008248 -36.661173 -1.277659 -51.213740 0.023410 27.085140 -8.729417 -2.113144 -0.127587 -0.004516 -0.000000 0.000000 0.000000 0.000000 0.000000 0.000000 0.000000 6.762409 6.119686 -4.547222 73.488738 23.939584 19.839360 -179.177428 83.796134 179.888745 -17.386972 42.442698 -7.075278 0.184330 -1.126932 -0.000000 0.000000 0.000000 0.000000 0.000000 0.000000 0.000000 
-1.775768 16.884830 1.488679 -142.862236 -81.403976 156.008470 4.096669 5.696682 -9.445863 -0.885767 4.733142 -4.700167 -8.534978 4.760488 0.897108 9.488595 -2.667740 -7.393257 -2.606478 -0.210869 0.094630 0.000000 0.000000 0.000000 -4.823078 29.557812 1.148196 -40.066152 4.079305 -38.294017 -1.227678 -51.211034 0.019890 26.991718 -8.798455 -2.124967 -0.131538 0.004926 -0.000000 0.000000 0.000000 0.000000 0.000000 0.000000 0.000000 6.359451 6.407280 -4.584072 73.935206 24.317340 21.269265 -179.141489 84.532885 179.891565 -17.281212 42.314040 -7.007509 0.184945 -1.117818 -0.000000 0.000000 0.000000 0.000000 0.000000 0.000000 0.000000 
-2.065560 16.859959 1.481543 -143.889656 -81.485935 156.670050 3.963109 5.846383 -9.279276 -0.919359 4.913128 -4.671478 -8.504722 4.935479 0.911968 9.369001 -2.542509 -7.406501 -2.551300 -0.206297 0.090118 0.000000 0.000000 0.000000 -4.824832 30.090203 1.140658 -39.136664 4.312364 -39.793890 -1.172702 -51.309091 0.016040 26.883654 -8.902739 -2.144484 -0.136904 0.015894 -0.000000 0.000000 0.000000 0.000000 0.000000 0.000000 0.000000 6.118166 6.603868 -4.594284 74.407886 24.692074 22.681355 -179.109973 85.318388 179.896129 -17.105408 42.183749 -6.911227 0.186003 -1.107727 -0.000000 0.000000 0.000000 0.000000 0.000000 0.000000 0.000000 
